HIERARCHY
ROOT Hip
{
  OFFSET 0.0 0.0 0.0
  CHANNELS 6 Xposition Yposition Zposition Xrotation Yrotation Zrotation
  JOINT LowerSpine
  {
    OFFSET 0.0 0.061367 -0.03653
    CHANNELS 3 Xrotation Yrotation Zrotation
    JOINT MiddleSpine
    {
      OFFSET 0.0 0.056002 0.002633
      CHANNELS 3 Xrotation Yrotation Zrotation
      JOINT Chest
      {
        OFFSET 0.0 0.069296 -0.013882
        CHANNELS 3 Xrotation Yrotation Zrotation
        JOINT Neck
        {
          OFFSET 0.0 0.156156 -0.002923
          CHANNELS 3 Xrotation Yrotation Zrotation
          JOINT Head
          {
            OFFSET 0.0 0.088183 0.023986
            CHANNELS 3 Xrotation Yrotation Zrotation
            End Site
            {
              OFFSET 1e-06 0.123215 0.003678
            }
          }
        }
        JOINT LClavicle
        {
          OFFSET 0.014189 0.150698 0.046467
          CHANNELS 3 Xrotation Yrotation Zrotation
          JOINT LShoulder
          {
            OFFSET 0.082893 0.021616 -0.034976
            CHANNELS 3 Xrotation Yrotation Zrotation
            JOINT LForearm
            {
              OFFSET 0.195645 -0.000695 -0.001695
              CHANNELS 3 Xrotation Yrotation Zrotation
              JOINT LHand
              {
                OFFSET 0.163209 0.000474 -0.000977
                CHANNELS 3 Xrotation Yrotation Zrotation
                End Site
                {
                  OFFSET 0.0 0.006864 0.0
                }
              }
            }
          }
        }
        JOINT RClavicle
        {
          OFFSET -0.014189 0.150698 0.046467
          CHANNELS 3 Xrotation Yrotation Zrotation
          JOINT RShoulder
          {
            OFFSET -0.082908 0.021619 -0.034982
            CHANNELS 3 Xrotation Yrotation Zrotation
            JOINT RForearm
            {
              OFFSET -0.195645 -0.000695 -0.001695
              CHANNELS 3 Xrotation Yrotation Zrotation
              JOINT RHand
              {
                OFFSET -0.163209 0.000474 -0.000977
                CHANNELS 3 Xrotation Yrotation Zrotation
                End Site
                {
                  OFFSET 0.0 0.006864 0.0
                }
              }
            }
          }
        }
      }
    }
  }
  JOINT RThigh
  {
    OFFSET -0.072558 0.02774 -0.005953
    CHANNELS 3 Xrotation Yrotation Zrotation
    JOINT RShin
    {
      OFFSET -0.005253 -0.285537 0.0
      CHANNELS 3 Xrotation Yrotation Zrotation
      JOINT RFoot
      {
        OFFSET 0.0 -0.28038 0.0
        CHANNELS 3 Xrotation Yrotation Zrotation
        JOINT RToe
        {
          OFFSET 0.0 -0.030816 0.064441
          CHANNELS 3 Xrotation Yrotation Zrotation
          End Site
          {
            OFFSET 0.0 0.0 0.043231
          }
        }
      }
    }
  }
  JOINT LThigh
  {
    OFFSET 0.072557 0.027741 -0.005953
    CHANNELS 3 Xrotation Yrotation Zrotation
    JOINT LShin
    {
      OFFSET 0.005253 -0.285539 0.0
      CHANNELS 3 Xrotation Yrotation Zrotation
      JOINT LFoot
      {
        OFFSET 0.0 -0.28038 0.0
        CHANNELS 3 Xrotation Yrotation Zrotation
        JOINT LToe
        {
          OFFSET 0.0 -0.030816 0.064441
          CHANNELS 3 Xrotation Yrotation Zrotation
          End Site
          {
            OFFSET 0.0 0.0 0.043231
          }
        }
      }
    }
  }
}
MOTION
Frames: 7
Frame Time: 0.03333333333333333
-0.057682 0.40852 -0.201148 22.828327 5.6041 19.084038 -11.586796 20.197334 -12.941077 3.051881 2.294837 -28.561106 2.803932 -21.57509 8.828383 0.70362 -26.274548 -4.21416 -7.488352 25.517088 7.450101 -9.686004 23.886827 -17.58852 15.942217 -6.045814 -25.287939 -18.835688 -54.602249 -40.667446 -13.853138 -17.153299 14.256402 12.262144 4.951849 36.569431 11.699546 23.299826 37.608185 -14.672124 47.966682 32.788219 22.593491 6.694586 12.469824 -84.77565 20.304764 -9.73899 73.515091 18.059418 15.417839 -21.655512 -7.991139 17.426165 9.649817 -19.963623 -14.273613 -83.431396 -2.649602 -4.781889 78.685501 26.403038 -3.371843 6.819906 9.68236 -24.158297 -15.934497 20.869741 11.012093 
-0.05706 0.406971 -0.202058 22.796442 5.64779 19.069399 -11.682091 20.195742 -12.833085 2.968814 2.349676 -28.529099 2.610204 -21.565466 8.820307 0.649831 -26.250519 -4.228121 -7.455369 25.491959 7.429836 -9.63997 23.87771 -17.658285 16.087727 -5.779568 -25.310324 -19.015579 -54.892967 -40.929825 -13.818408 -17.132092 14.258746 12.272087 4.962635 36.509216 11.955319 22.689348 37.795895 -14.947351 48.234634 32.994072 22.586422 6.668889 12.437837 -85.141151 20.42672 -9.718419 73.68177 18.145645 15.286054 -21.567787 -8.134873 17.394991 9.703722 -19.920446 -14.260621 -83.834633 -2.771325 -4.92692 79.252525 26.289297 -3.455542 6.799583 9.664863 -24.117842 -15.927837 20.839455 11.008924 
-0.056394 0.405716 -0.202745 22.7397 5.686684 19.058451 -11.758604 20.213858 -12.736944 2.902622 2.403353 -28.515528 2.443327 -21.553417 8.823611 0.571372 -26.245346 -4.247825 -7.425154 25.479052 7.41423 -9.610312 23.872837 -17.721828 16.212334 -5.537846 -25.34898 -19.155413 -55.117535 -41.168568 -13.793447 -17.117607 14.267244 12.282121 4.99678 36.456406 12.183847 22.161556 37.953224 -15.215587 48.479774 33.216389 22.586725 6.649401 12.414313 -85.430748 20.558311 -9.744946 73.821686 18.238436 15.178279 -21.506283 -8.254302 17.37167 9.750924 -19.889734 -14.256699 -84.171066 -2.879472 -5.061538 79.775848 26.189306 -3.525938 6.786274 9.643567 -24.090755 -15.928384 20.820465 11.010348 
-0.055748 0.404815 -0.203239 22.640821 5.722181 19.032835 -11.814743 20.244074 -12.654837 2.856864 2.463143 -28.513174 2.309568 -21.535711 8.840491 0.476198 -26.253841 -4.269482 -7.394444 25.471817 7.402853 -9.590078 23.874771 -17.760794 16.330042 -5.349002 -25.403233 -19.234846 -55.273247 -41.350212 -13.779646 -17.10434 14.27653 12.29163 5.032619 36.421604 12.378368 21.744759 38.071976 -15.451787 48.68924 33.422001 22.588707 6.631209 12.397619 -85.602028 20.677052 -9.81618 73.916229 18.323141 15.10303 -21.461723 -8.352764 17.352396 9.788102 -19.866484 -14.258964 -84.404709 -2.969678 -5.171145 80.222733 26.103718 -3.578285 6.780909 9.617947 -24.07559 -15.935735 20.804838 11.013311 
-0.055056 0.404342 -0.203628 22.520191 5.744746 19.000343 -11.844245 20.281183 -12.589504 2.825403 2.521845 -28.517927 2.200375 -21.503214 8.883257 0.379444 -26.269802 -4.2946 -7.363995 25.470764 7.390656 -9.581801 23.878092 -17.782988 16.437155 -5.217654 -25.482576 -19.229969 -55.329502 -41.443569 -13.775584 -17.091814 14.286422 12.301747 5.076175 36.393578 12.518054 21.454412 38.15453 -15.635098 48.83094 33.582344 22.592331 6.618072 12.386374 -85.657906 20.784756 -9.931011 73.974297 18.397278 15.058655 -21.447779 -8.428271 17.333763 9.803829 -19.855244 -14.26729 -84.537773 -3.027999 -5.271429 80.554955 26.031992 -3.602476 6.776433 9.588046 -24.071577 -15.948576 20.794323 11.015108 
-0.054381 0.404269 -0.20395 22.370804 5.756876 18.975348 -11.844768 20.325199 -12.548228 2.804029 2.582139 -28.535133 2.107914 -21.453268 8.953507 0.269216 -26.298971 -4.321044 -7.334299 25.476225 7.377899 -9.599202 23.882599 -17.767162 16.543119 -5.143755 -25.587732 -19.139032 -55.28019 -41.43779 -13.786819 -17.078493 14.296206 12.313495 5.136242 36.368893 12.604655 21.298607 38.20303 -15.75661 48.89341 33.68676 22.5979 6.609022 12.381973 -85.592865 20.885084 -10.0922 73.991997 18.468712 15.046554 -21.463377 -8.47187 17.322861 9.79356 -19.858641 -14.283208 -84.562637 -3.053175 -5.374701 80.776558 25.977119 -3.592894 6.780044 9.538518 -24.082565 -15.971407 20.788195 11.015928 
-0.053738 0.404533 -0.204265 22.202507 5.765963 18.960464 -11.815331 20.377556 -12.541721 2.794949 2.638725 -28.569679 2.03312 -21.387463 9.062128 0.145088 -26.348759 -4.347454 -7.303586 25.495567 7.366385 -9.644859 23.890379 -17.710752 16.628517 -5.107255 -25.719734 -18.97719 -55.134956 -41.349777 -13.815737 -17.068262 14.311247 12.32849 5.217767 36.356441 12.62874 21.260908 38.219238 -15.835963 48.880112 33.745529 22.611128 6.607219 12.38765 -85.435493 20.986238 -10.307737 73.984016 18.55378 15.078225 -21.521778 -8.491695 17.320797 9.761099 -19.882385 -14.31151 -84.503784 -3.045337 -5.497973 80.900726 25.948471 -3.550956 6.790691 9.473611 -24.115253 -16.00922 20.792215 11.020043 
